<svg width="16" height="17" viewBox="0 0 16 17" fill="none" xmlns="http://www.w3.org/2000/svg">
<g id="Access time" clip-path="url(#clip0_726_25543)">
<path id="Vector" d="M7.9935 2.16992C4.3135 2.16992 1.3335 5.15659 1.3335 8.83659C1.3335 12.5166 4.3135 15.5033 7.9935 15.5033C11.6802 15.5033 14.6668 12.5166 14.6668 8.83659C14.6668 5.15659 11.6802 2.16992 7.9935 2.16992ZM8.00016 14.1699C5.0535 14.1699 2.66683 11.7833 2.66683 8.83659C2.66683 5.88992 5.0535 3.50326 8.00016 3.50326C10.9468 3.50326 13.3335 5.88992 13.3335 8.83659C13.3335 11.7833 10.9468 14.1699 8.00016 14.1699Z" fill="#212C33"/>
<path id="Vector_2" d="M8.3335 5.50391H7.3335V9.50391L10.8335 11.6039L11.3335 10.7839L8.3335 9.00391V5.50391Z" fill="#212C33"/>
</g>
<defs>
<clipPath id="clip0_726_25543">
<rect width="16" height="16" fill="white" transform="translate(0 0.836914)"/>
</clipPath>
</defs>
</svg>
