<svg width="20" height="16" viewBox="0 0 20 16" fill="none" xmlns="http://www.w3.org/2000/svg">
<path d="M15.4545 9.81796V7.09069H12.7273V5.27251H15.4545V2.54523H17.2727V5.27251H20V7.09069H17.2727V9.81796H15.4545ZM7.27273 7.99978C6.27273 7.99978 5.41667 7.64372 4.70455 6.9316C3.99242 6.21947 3.63636 5.36341 3.63636 4.36341C3.63636 3.36341 3.99242 2.50735 4.70455 1.79523C5.41667 1.08311 6.27273 0.727051 7.27273 0.727051C8.27273 0.727051 9.12879 1.08311 9.84091 1.79523C10.553 2.50735 10.9091 3.36341 10.9091 4.36341C10.9091 5.36341 10.553 6.21947 9.84091 6.9316C9.12879 7.64372 8.27273 7.99978 7.27273 7.99978ZM0 15.2725V12.727C0 12.2119 0.132576 11.7384 0.397727 11.3066C0.662879 10.8748 1.01515 10.5452 1.45455 10.318C2.39394 9.84826 3.34848 9.49599 4.31818 9.26114C5.28788 9.02629 6.27273 8.90887 7.27273 8.90887C8.27273 8.90887 9.25758 9.02629 10.2273 9.26114C11.197 9.49599 12.1515 9.84826 13.0909 10.318C13.5303 10.5452 13.8826 10.8748 14.1477 11.3066C14.4129 11.7384 14.5455 12.2119 14.5455 12.727V15.2725H0Z" fill="#0745CB"/>
</svg>
