<svg width="61" height="61" viewBox="0 0 61 61" fill="none" xmlns="http://www.w3.org/2000/svg">
<g id="calendar-outline">
<rect x="0.5" y="0.212402" width="60" height="60" rx="30" fill="#E5EDFF"/>
<g id="Group 47432">
<path id="Vector" d="M43.1394 16.7026H18.2356C16.1725 16.7026 14.5 18.3751 14.5 20.4382V42.8517C14.5 44.9148 16.1725 46.5873 18.2356 46.5873H43.1394C45.2025 46.5873 46.875 44.9148 46.875 42.8517V20.4382C46.875 18.3751 45.2025 16.7026 43.1394 16.7026Z" stroke="#0745CB" stroke-width="1.32821" stroke-linejoin="round"/>
<path id="Vector_2" d="M33.8004 30.4001C34.832 30.4001 35.6682 29.5639 35.6682 28.5323C35.6682 27.5008 34.832 26.6646 33.8004 26.6646C32.7689 26.6646 31.9326 27.5008 31.9326 28.5323C31.9326 29.5639 32.7689 30.4001 33.8004 30.4001Z" fill="#0745CB"/>
<path id="Vector_3" d="M40.026 30.4001C41.0575 30.4001 41.8938 29.5639 41.8938 28.5323C41.8938 27.5008 41.0575 26.6646 40.026 26.6646C38.9944 26.6646 38.1582 27.5008 38.1582 28.5323C38.1582 29.5639 38.9944 30.4001 40.026 30.4001Z" fill="#0745CB"/>
<path id="Vector_4" d="M33.8004 36.6257C34.832 36.6257 35.6682 35.7895 35.6682 34.7579C35.6682 33.7264 34.832 32.8901 33.8004 32.8901C32.7689 32.8901 31.9326 33.7264 31.9326 34.7579C31.9326 35.7895 32.7689 36.6257 33.8004 36.6257Z" fill="#0745CB"/>
<path id="Vector_5" d="M40.026 36.6257C41.0575 36.6257 41.8938 35.7895 41.8938 34.7579C41.8938 33.7264 41.0575 32.8901 40.026 32.8901C38.9944 32.8901 38.1582 33.7264 38.1582 34.7579C38.1582 35.7895 38.9944 36.6257 40.026 36.6257Z" fill="#0745CB"/>
<path id="Vector_6" d="M21.3483 36.6257C22.3798 36.6257 23.216 35.7895 23.216 34.7579C23.216 33.7264 22.3798 32.8901 21.3483 32.8901C20.3167 32.8901 19.4805 33.7264 19.4805 34.7579C19.4805 35.7895 20.3167 36.6257 21.3483 36.6257Z" fill="#0745CB"/>
<path id="Vector_7" d="M27.5748 36.6257C28.6064 36.6257 29.4426 35.7895 29.4426 34.7579C29.4426 33.7264 28.6064 32.8901 27.5748 32.8901C26.5433 32.8901 25.707 33.7264 25.707 34.7579C25.707 35.7895 26.5433 36.6257 27.5748 36.6257Z" fill="#0745CB"/>
<path id="Vector_8" d="M21.3483 42.8518C22.3798 42.8518 23.216 42.0156 23.216 40.984C23.216 39.9524 22.3798 39.1162 21.3483 39.1162C20.3167 39.1162 19.4805 39.9524 19.4805 40.984C19.4805 42.0156 20.3167 42.8518 21.3483 42.8518Z" fill="#0745CB"/>
<path id="Vector_9" d="M27.5748 42.8518C28.6064 42.8518 29.4426 42.0156 29.4426 40.984C29.4426 39.9524 28.6064 39.1162 27.5748 39.1162C26.5433 39.1162 25.707 39.9524 25.707 40.984C25.707 42.0156 26.5433 42.8518 27.5748 42.8518Z" fill="#0745CB"/>
<path id="Vector_10" d="M33.8004 42.8518C34.832 42.8518 35.6682 42.0156 35.6682 40.984C35.6682 39.9524 34.832 39.1162 33.8004 39.1162C32.7689 39.1162 31.9326 39.9524 31.9326 40.984C31.9326 42.0156 32.7689 42.8518 33.8004 42.8518Z" fill="#0745CB"/>
<path id="Vector_11" d="M20.7256 14.2124V16.7028M40.6487 14.2124V16.7028" stroke="#0745CB" stroke-width="1.32821" stroke-linecap="round" stroke-linejoin="round"/>
<path id="Vector_12" d="M46.875 22.9287H14.5" stroke="#0745CB" stroke-width="1.32821" stroke-linejoin="round"/>
</g>
</g>
</svg>
