<svg width="61" height="60" viewBox="0 0 61 60" fill="none" xmlns="http://www.w3.org/2000/svg">
<rect x="0.5" width="60" height="60" rx="30" fill="#E5EDFF"/>
<path d="M43.1394 16.4902H18.2356C16.1725 16.4902 14.5 18.1627 14.5 20.2258V42.6393C14.5 44.7024 16.1725 46.3748 18.2356 46.3748H43.1394C45.2025 46.3748 46.875 44.7024 46.875 42.6393V20.2258C46.875 18.1627 45.2025 16.4902 43.1394 16.4902Z" stroke="#0745CB" stroke-width="2.5" stroke-linejoin="round"/>
<path d="M33.8004 30.1877C34.832 30.1877 35.6682 29.3515 35.6682 28.3199C35.6682 27.2884 34.832 26.4521 33.8004 26.4521C32.7689 26.4521 31.9326 27.2884 31.9326 28.3199C31.9326 29.3515 32.7689 30.1877 33.8004 30.1877Z" fill="#0745CB"/>
<path d="M40.0265 30.1877C41.058 30.1877 41.8943 29.3515 41.8943 28.3199C41.8943 27.2884 41.058 26.4521 40.0265 26.4521C38.9949 26.4521 38.1587 27.2884 38.1587 28.3199C38.1587 29.3515 38.9949 30.1877 40.0265 30.1877Z" fill="#0745CB"/>
<path d="M33.8004 36.4133C34.832 36.4133 35.6682 35.5771 35.6682 34.5455C35.6682 33.514 34.832 32.6777 33.8004 32.6777C32.7689 32.6777 31.9326 33.514 31.9326 34.5455C31.9326 35.5771 32.7689 36.4133 33.8004 36.4133Z" fill="#0745CB"/>
<path d="M40.0265 36.4133C41.058 36.4133 41.8943 35.5771 41.8943 34.5455C41.8943 33.514 41.058 32.6777 40.0265 32.6777C38.9949 32.6777 38.1587 33.514 38.1587 34.5455C38.1587 35.5771 38.9949 36.4133 40.0265 36.4133Z" fill="#0745CB"/>
<path d="M21.3487 36.4133C22.3803 36.4133 23.2165 35.5771 23.2165 34.5455C23.2165 33.514 22.3803 32.6777 21.3487 32.6777C20.3172 32.6777 19.481 33.514 19.481 34.5455C19.481 35.5771 20.3172 36.4133 21.3487 36.4133Z" fill="#0745CB"/>
<path d="M27.5743 36.4133C28.6059 36.4133 29.4421 35.5771 29.4421 34.5455C29.4421 33.514 28.6059 32.6777 27.5743 32.6777C26.5428 32.6777 25.7065 33.514 25.7065 34.5455C25.7065 35.5771 26.5428 36.4133 27.5743 36.4133Z" fill="#0745CB"/>
<path d="M21.3487 42.6394C22.3803 42.6394 23.2165 41.8031 23.2165 40.7716C23.2165 39.74 22.3803 38.9038 21.3487 38.9038C20.3172 38.9038 19.481 39.74 19.481 40.7716C19.481 41.8031 20.3172 42.6394 21.3487 42.6394Z" fill="#0745CB"/>
<path d="M27.5743 42.6394C28.6059 42.6394 29.4421 41.8031 29.4421 40.7716C29.4421 39.74 28.6059 38.9038 27.5743 38.9038C26.5428 38.9038 25.7065 39.74 25.7065 40.7716C25.7065 41.8031 26.5428 42.6394 27.5743 42.6394Z" fill="#0745CB"/>
<path d="M33.8004 42.6394C34.832 42.6394 35.6682 41.8031 35.6682 40.7716C35.6682 39.74 34.832 38.9038 33.8004 38.9038C32.7689 38.9038 31.9326 39.74 31.9326 40.7716C31.9326 41.8031 32.7689 42.6394 33.8004 42.6394Z" fill="#0745CB"/>
<path d="M20.7261 14V16.4904M40.6492 14V16.4904" stroke="#0745CB" stroke-width="2.5" stroke-linecap="round" stroke-linejoin="round"/>
<path d="M46.875 22.7163H14.5" stroke="#0745CB" stroke-width="2.5" stroke-linejoin="round"/>
</svg>
