<svg width="61" height="60" viewBox="0 0 61 60" fill="none" xmlns="http://www.w3.org/2000/svg">
<rect x="0.5" width="60" height="60" rx="30" fill="#E5EDFF"/>
<path d="M20.875 19.5625H49M20.875 30.5H49M20.875 41.4375H49" stroke="#0745CB" stroke-width="2.5" stroke-linecap="round" stroke-linejoin="round"/>
<path d="M13.0625 21.125C13.9254 21.125 14.625 20.4254 14.625 19.5625C14.625 18.6996 13.9254 18 13.0625 18C12.1996 18 11.5 18.6996 11.5 19.5625C11.5 20.4254 12.1996 21.125 13.0625 21.125Z" stroke="#0745CB" stroke-width="2.5" stroke-linecap="round" stroke-linejoin="round"/>
<path d="M13.0625 32.0625C13.9254 32.0625 14.625 31.3629 14.625 30.5C14.625 29.6371 13.9254 28.9375 13.0625 28.9375C12.1996 28.9375 11.5 29.6371 11.5 30.5C11.5 31.3629 12.1996 32.0625 13.0625 32.0625Z" stroke="#0745CB" stroke-width="2.5" stroke-linecap="round" stroke-linejoin="round"/>
<path d="M13.0625 43C13.9254 43 14.625 42.3004 14.625 41.4375C14.625 40.5746 13.9254 39.875 13.0625 39.875C12.1996 39.875 11.5 40.5746 11.5 41.4375C11.5 42.3004 12.1996 43 13.0625 43Z" stroke="#0745CB" stroke-width="2.5" stroke-linecap="round" stroke-linejoin="round"/>
</svg>
