<svg width="61" height="60" viewBox="0 0 61 60" fill="none" xmlns="http://www.w3.org/2000/svg">
<rect x="0.112793" width="60" height="60" rx="30" fill="#E5EDFF"/>
<path d="M24.4974 45H14.6897C14.5367 45 14.39 44.9392 14.2818 44.831C14.1736 44.7228 14.1128 44.5761 14.1128 44.4231V23.0769C14.1128 22.7709 14.2344 22.4774 14.4507 22.261C14.6671 22.0446 14.9606 21.9231 15.2666 21.9231H23.3436C23.6496 21.9231 23.9431 22.0446 24.1595 22.261C24.3758 22.4774 24.4974 22.7709 24.4974 23.0769V45ZM24.4974 45V16.1538C24.4974 15.8478 24.619 15.5543 24.8354 15.338C25.0518 15.1216 25.3452 15 25.6513 15H34.882C35.188 15 35.4815 15.1216 35.6979 15.338C35.9143 15.5543 36.0359 15.8478 36.0359 16.1538V45M24.4974 45H36.0359M36.0359 45V27.6923C36.0359 27.3863 36.1574 27.0928 36.3738 26.8764C36.5902 26.66 36.8837 26.5385 37.1897 26.5385H45.2666C45.5727 26.5385 45.8661 26.66 46.0825 26.8764C46.2989 27.0928 46.4205 27.3863 46.4205 27.6923V44.4231C46.4205 44.5761 46.3597 44.7228 46.2515 44.831C46.1433 44.9392 45.9966 45 45.8436 45H36.0359Z" stroke="#0745CB" stroke-width="2.5" stroke-linecap="round" stroke-linejoin="round"/>
</svg>
