<svg width="20" height="21" viewBox="0 0 20 21" fill="none" xmlns="http://www.w3.org/2000/svg">
<path d="M19.4316 8.41C19.5492 9.07872 19.6043 9.76215 19.6043 10.4419C19.6043 13.4842 18.5167 16.0563 16.6245 17.7979H16.6281C14.971 19.3264 12.6966 20.2119 9.99967 20.2119C6.21879 20.2119 2.76125 18.0808 1.06372 14.7041C-0.354571 11.8786 -0.354573 8.54962 1.06371 5.72407C2.76125 2.34369 6.21879 0.212588 9.99967 0.212588C12.4835 0.183193 14.8828 1.11647 16.6906 2.81401L13.8357 5.66895C12.8032 4.68424 11.4253 4.14779 9.99967 4.16983C7.3909 4.16983 5.17528 5.92983 4.3853 8.29977C3.96643 9.54169 3.96643 10.8865 4.3853 12.1284H4.38898C5.18263 14.4947 7.39457 16.2547 10.0033 16.2547C11.3518 16.2547 12.5092 15.9093 13.4058 15.2993H13.4021C14.4566 14.6012 15.1768 13.5026 15.4009 12.2607H9.99966V8.41H19.4316Z" fill="#0745CB"/>
</svg>
