<svg width="60" height="60" viewBox="0 0 60 60" fill="none" xmlns="http://www.w3.org/2000/svg">
<rect x="0.000488281" width="60" height="60" rx="30" fill="#E5EDFF"/>
<path d="M49.9687 18C49.3327 18.0002 48.7064 18.1556 48.1442 18.4528C47.5819 18.7501 47.1007 19.1801 46.7424 19.7056C46.3842 20.231 46.1596 20.836 46.0882 21.468C46.0169 22.0999 46.1009 22.7398 46.3331 23.3319L38.1136 31.5514C37.1973 31.1907 36.1784 31.1907 35.2621 31.5514L29.3863 25.6756C29.619 25.0833 29.7034 24.4432 29.6324 23.8109C29.5613 23.1786 29.3368 22.5732 28.9784 22.0474C28.6201 21.5216 28.1387 21.0913 27.5762 20.7939C27.0136 20.4966 26.387 20.3411 25.7507 20.3411C25.1144 20.3411 24.4877 20.4966 23.9252 20.7939C23.3626 21.0913 22.8813 21.5216 22.5229 22.0474C22.1645 22.5732 21.9401 23.1786 21.869 23.8109C21.7979 24.4432 21.8824 25.0833 22.115 25.6756L12.3331 35.4575C11.4977 35.1298 10.5749 35.0997 9.71996 35.3723C8.86499 35.645 8.12997 36.2036 7.63847 36.9545C7.14697 37.7053 6.92898 38.6024 7.02115 39.4951C7.11332 40.3877 7.51003 41.2214 8.14458 41.8559C8.77912 42.4905 9.6128 42.8872 10.5054 42.9793C11.3981 43.0715 12.2952 42.8535 13.046 42.362C13.7968 41.8705 14.3555 41.1355 14.6282 40.2805C14.9008 39.4256 14.8707 38.5028 14.543 37.6674L24.3249 27.8855C25.2412 28.2461 26.2601 28.2461 27.1764 27.8855L33.0522 33.7613C32.8195 34.3535 32.7351 34.9936 32.8062 35.6259C32.8773 36.2582 33.1017 36.8636 33.4601 37.3894C33.8184 37.9152 34.2998 38.3455 34.8623 38.6429C35.4249 38.9403 36.0516 39.0957 36.6879 39.0957C37.3242 39.0957 37.9508 38.9403 38.5134 38.6429C39.0759 38.3455 39.5573 37.9152 39.9156 37.3894C40.274 36.8636 40.4985 36.2582 40.5695 35.6259C40.6406 34.9936 40.5562 34.3535 40.3235 33.7613L48.543 25.5418C49.0778 25.7519 49.6525 25.8414 50.2259 25.804C50.7994 25.7665 51.3575 25.603 51.8604 25.325C52.3634 25.0471 52.7989 24.6616 53.1358 24.1961C53.4727 23.7305 53.7027 23.1964 53.8094 22.6317C53.9162 22.0671 53.897 21.4858 53.7533 20.9294C53.6096 20.373 53.3449 19.8552 52.9781 19.4128C52.6113 18.9704 52.1514 18.6145 51.6312 18.3703C51.111 18.126 50.5434 17.9996 49.9687 18Z" fill="#0745CB"/>
</svg>
