<svg width="60" height="61" viewBox="0 0 60 61" fill="none" xmlns="http://www.w3.org/2000/svg">
<rect y="0.211914" width="60" height="60" rx="30" fill="#E5EDFF"/>
<path d="M38.6162 42.5097V16.0581C38.6147 15.5689 38.4198 15.1002 38.0738 14.7542C37.7279 14.4083 37.2592 14.2133 36.7699 14.2119H15.8462C15.357 14.2133 14.8882 14.4083 14.5423 14.7542C14.1964 15.1002 14.0014 15.5689 14 16.0581V43.1359C14.0024 43.9512 14.3274 44.7325 14.9039 45.309C15.4805 45.8855 16.2617 46.2105 17.077 46.2129H42.3086" stroke="#0745CB" stroke-width="2.5" stroke-linejoin="round"/>
<path d="M42.3072 46.2132C41.3279 46.2132 40.3887 45.8242 39.6962 45.1317C39.0038 44.4392 38.6147 43.5 38.6147 42.5207V20.3662H44.1534C44.643 20.3662 45.1126 20.5607 45.4588 20.907C45.8051 21.2532 45.9996 21.7228 45.9996 22.2124V42.5207C45.9996 43.5 45.6106 44.4392 44.9181 45.1317C44.2256 45.8242 43.2865 46.2132 42.3072 46.2132Z" stroke="#0745CB" stroke-width="2.5" stroke-linejoin="round"/>
<path d="M28.7693 20.3662H33.6925M28.7693 25.2894H33.6925M18.9229 30.2127H33.6925M18.9229 35.1359H33.6925M18.9229 40.0591H33.6925" stroke="#0745CB" stroke-width="2.5" stroke-linecap="round" stroke-linejoin="round"/>
<path d="M23.845 26.5196H18.9217C18.5953 26.5196 18.2822 26.3899 18.0514 26.1591C17.8206 25.9283 17.6909 25.6152 17.6909 25.2888V20.3656C17.6909 20.0391 17.8206 19.7261 18.0514 19.4953C18.2822 19.2644 18.5953 19.1348 18.9217 19.1348H23.845C24.1714 19.1348 24.4844 19.2644 24.7153 19.4953C24.9461 19.7261 25.0758 20.0391 25.0758 20.3656V25.2888C25.0758 25.6152 24.9461 25.9283 24.7153 26.1591C24.4844 26.3899 24.1714 26.5196 23.845 26.5196Z" fill="#0745CB"/>
</svg>
