<svg width="32" height="32" viewBox="0 0 32 32" fill="none" xmlns="http://www.w3.org/2000/svg">
<g id="cardiology_FILL1_wght400_GRAD0_opsz24 1">
<path id="Vector" d="M14.267 16.9667L13.1337 15.2667C13.0225 15.0889 12.867 14.9444 12.667 14.8333C12.467 14.7222 12.2559 14.6667 12.0337 14.6667H3.30033C3.05588 14.0889 2.88921 13.5333 2.80033 13C2.71144 12.4667 2.66699 11.9111 2.66699 11.3333C2.66699 9.24444 3.36699 7.5 4.76699 6.1C6.16699 4.7 7.91144 4 10.0003 4C11.1559 4 12.2559 4.24444 13.3003 4.73333C14.3448 5.22222 15.2448 5.91111 16.0003 6.8C16.7559 5.91111 17.6559 5.22222 18.7003 4.73333C19.7448 4.24444 20.8448 4 22.0003 4C24.0892 4 25.8337 4.7 27.2337 6.1C28.6337 7.5 29.3337 9.24444 29.3337 11.3333C29.3337 11.9111 29.2892 12.4667 29.2003 13C29.1114 13.5333 28.9448 14.0889 28.7003 14.6667H20.767L18.467 11.2667C18.3337 11.0667 18.1614 10.9167 17.9503 10.8167C17.7392 10.7167 17.5114 10.6667 17.267 10.6667C16.9781 10.6667 16.7281 10.75 16.517 10.9167C16.3059 11.0833 16.1559 11.3 16.067 11.5667L14.267 16.9667ZM14.2337 26.8667C11.9003 24.7778 9.96144 22.9667 8.41699 21.4333C6.87255 19.9 5.6781 18.5333 4.83366 17.3333H11.2337L13.5337 20.7333C13.667 20.9333 13.8392 21.0833 14.0503 21.1833C14.2614 21.2833 14.4892 21.3333 14.7337 21.3333C15.0225 21.3333 15.2725 21.25 15.4837 21.0833C15.6948 20.9167 15.8448 20.7 15.9337 20.4333L17.7337 15L18.9003 16.7333C19.0114 16.9111 19.167 17.0556 19.367 17.1667C19.567 17.2778 19.7781 17.3333 20.0003 17.3333H27.167C26.3225 18.5333 25.1281 19.9 23.5837 21.4333C22.0392 22.9667 20.1003 24.7778 17.767 26.8667C17.5225 27.1111 17.2448 27.2889 16.9337 27.4C16.6225 27.5111 16.3114 27.5667 16.0003 27.5667C15.6892 27.5667 15.3781 27.5111 15.067 27.4C14.7559 27.2889 14.4781 27.1111 14.2337 26.8667Z" fill="url(#paint0_linear_452_19342)"/>
</g>
<defs>
<linearGradient id="paint0_linear_452_19342" x1="2" y1="4" x2="24.5" y2="30" gradientUnits="userSpaceOnUse">
<stop stop-color="#11A89C"/>
<stop offset="1" stop-color="#00CEBE"/>
</linearGradient>
</defs>
</svg>
