<svg width="20" height="21" viewBox="0 0 20 21" fill="none" xmlns="http://www.w3.org/2000/svg">
<path d="M10.0009 0.211914C7.28508 0.211914 6.94424 0.223789 5.87756 0.272332C4.81297 0.321082 4.08629 0.489625 3.45045 0.73692C2.79274 0.992339 2.23481 1.33401 1.67898 1.89006C1.12272 2.4459 0.78105 3.00382 0.524797 3.66132C0.276878 4.29737 0.108126 5.02426 0.0602089 6.08843C0.0125 7.15511 0 7.49616 0 10.212C0 12.9279 0.0120837 13.2677 0.0604175 14.3344C0.109376 15.3989 0.27792 16.1256 0.525006 16.7615C0.780633 17.4192 1.1223 17.9771 1.67835 18.5329C2.23398 19.0892 2.7919 19.4317 3.4492 19.6871C4.08546 19.9344 4.81234 20.103 5.87673 20.1517C6.94341 20.2002 7.28403 20.2121 9.99969 20.2121C12.7158 20.2121 13.0556 20.2002 14.1222 20.1517C15.1868 20.103 15.9143 19.9344 16.5506 19.6871C17.2081 19.4317 17.7652 19.0892 18.3208 18.5329C18.8771 17.9771 19.2187 17.4192 19.475 16.7617C19.7208 16.1256 19.8896 15.3987 19.9396 14.3346C19.9875 13.2679 20 12.9279 20 10.212C20 7.49616 19.9875 7.15532 19.9396 6.08864C19.8896 5.02405 19.7208 4.29737 19.475 3.66153C19.2187 3.00382 18.8771 2.4459 18.3208 1.89006C17.7646 1.3338 17.2083 0.992131 16.55 0.73692C15.9125 0.489625 15.1854 0.321082 14.1208 0.272332C13.0541 0.223789 12.7145 0.211914 9.99781 0.211914H10.0009ZM9.10385 2.01402C9.3701 2.0136 9.66718 2.01402 10.0009 2.01402C12.671 2.01402 12.9874 2.0236 14.0418 2.07152C15.0168 2.1161 15.546 2.27902 15.8985 2.4159C16.3652 2.59715 16.6979 2.81382 17.0477 3.16382C17.3977 3.51382 17.6143 3.84716 17.796 4.31383C17.9329 4.66592 18.096 5.19509 18.1404 6.1701C18.1883 7.22428 18.1987 7.54095 18.1987 10.2097C18.1987 12.8785 18.1883 13.1952 18.1404 14.2494C18.0958 15.2244 17.9329 15.7535 17.796 16.1056C17.6148 16.5723 17.3977 16.9046 17.0477 17.2544C16.6977 17.6044 16.3654 17.8211 15.8985 18.0023C15.5464 18.1398 15.0168 18.3023 14.0418 18.3469C12.9876 18.3948 12.671 18.4052 10.0009 18.4052C7.3307 18.4052 7.01424 18.3948 5.96006 18.3469C4.98505 18.3019 4.45588 18.139 4.10317 18.0021C3.6365 17.8208 3.30316 17.6042 2.95316 17.2542C2.60315 16.9042 2.38648 16.5717 2.20481 16.1048C2.06794 15.7527 1.90481 15.2235 1.86044 14.2485C1.81252 13.1943 1.80294 12.8777 1.80294 10.2072C1.80294 7.53678 1.81252 7.22178 1.86044 6.1676C1.90502 5.19259 2.06794 4.66342 2.20481 4.31091C2.38607 3.84424 2.60315 3.51091 2.95316 3.1609C3.30316 2.8109 3.6365 2.59423 4.10317 2.41256C4.45567 2.27506 4.98505 2.11256 5.96006 2.06777C6.88257 2.0261 7.24008 2.0136 9.10385 2.01152V2.01402ZM15.3389 3.67445C14.6764 3.67445 14.1389 4.21133 14.1389 4.87405C14.1389 5.53655 14.6764 6.07406 15.3389 6.07406C16.0014 6.07406 16.5389 5.53655 16.5389 4.87405C16.5389 4.21154 16.0014 3.67403 15.3389 3.67403V3.67445ZM10.0009 5.07655C7.16487 5.07655 4.86547 7.37595 4.86547 10.212C4.86547 13.0481 7.16487 15.3464 10.0009 15.3464C12.837 15.3464 15.1356 13.0481 15.1356 10.212C15.1356 7.37595 12.8368 5.07655 10.0007 5.07655H10.0009ZM10.0009 6.87865C11.8418 6.87865 13.3343 8.37096 13.3343 10.212C13.3343 12.0529 11.8418 13.5454 10.0009 13.5454C8.15988 13.5454 6.66757 12.0529 6.66757 10.212C6.66757 8.37096 8.15988 6.87865 10.0009 6.87865Z" fill="#0745CB"/>
</svg>
