<svg width="20" height="20" viewBox="0 0 20 20" fill="none" xmlns="http://www.w3.org/2000/svg">
<g id="license_FILL1_wght400_GRAD0_opsz24 1">
<path id="Vector" d="M9.99992 10.8337C9.30547 10.8337 8.7152 10.5906 8.22908 10.1045C7.74297 9.61838 7.49992 9.0281 7.49992 8.33366C7.49992 7.63921 7.74297 7.04894 8.22908 6.56283C8.7152 6.07671 9.30547 5.83366 9.99992 5.83366C10.6944 5.83366 11.2846 6.07671 11.7708 6.56283C12.2569 7.04894 12.4999 7.63921 12.4999 8.33366C12.4999 9.0281 12.2569 9.61838 11.7708 10.1045C11.2846 10.5906 10.6944 10.8337 9.99992 10.8337ZM4.99992 19.167V12.7295C4.47214 12.1462 4.06242 11.4795 3.77075 10.7295C3.47909 9.97949 3.33325 9.18088 3.33325 8.33366C3.33325 6.47255 3.97909 4.89616 5.27075 3.60449C6.56242 2.31283 8.13881 1.66699 9.99992 1.66699C11.861 1.66699 13.4374 2.31283 14.7291 3.60449C16.0208 4.89616 16.6666 6.47255 16.6666 8.33366C16.6666 9.18088 16.5208 9.97949 16.2291 10.7295C15.9374 11.4795 15.5277 12.1462 14.9999 12.7295V19.167L9.99992 17.5003L4.99992 19.167ZM9.99992 13.3337C11.3888 13.3337 12.5694 12.8475 13.5416 11.8753C14.5138 10.9031 14.9999 9.72255 14.9999 8.33366C14.9999 6.94477 14.5138 5.76421 13.5416 4.79199C12.5694 3.81977 11.3888 3.33366 9.99992 3.33366C8.61103 3.33366 7.43047 3.81977 6.45825 4.79199C5.48603 5.76421 4.99992 6.94477 4.99992 8.33366C4.99992 9.72255 5.48603 10.9031 6.45825 11.8753C7.43047 12.8475 8.61103 13.3337 9.99992 13.3337Z" fill="#455A64"/>
</g>
</svg>
