<svg width="20" height="20" viewBox="0 0 20 20" fill="none" xmlns="http://www.w3.org/2000/svg">
<g id="man_2_FILL1_wght400_GRAD0_opsz24 2">
<path id="Vector" d="M8.75008 18.3337V12.5003H6.66675V7.50033C6.66675 7.04199 6.82994 6.64963 7.15633 6.32324C7.48272 5.99685 7.87508 5.83366 8.33341 5.83366H11.6667C12.1251 5.83366 12.5174 5.99685 12.8438 6.32324C13.1702 6.64963 13.3334 7.04199 13.3334 7.50033V12.5003H11.2501V18.3337H8.75008ZM10.0001 5.00033C9.54175 5.00033 9.14939 4.83713 8.823 4.51074C8.49661 4.18435 8.33341 3.79199 8.33341 3.33366C8.33341 2.87533 8.49661 2.48296 8.823 2.15658C9.14939 1.83019 9.54175 1.66699 10.0001 1.66699C10.4584 1.66699 10.8508 1.83019 11.1772 2.15658C11.5036 2.48296 11.6667 2.87533 11.6667 3.33366C11.6667 3.79199 11.5036 4.18435 11.1772 4.51074C10.8508 4.83713 10.4584 5.00033 10.0001 5.00033Z" fill="#455A64"/>
</g>
</svg>
