<svg width="60" height="60" viewBox="0 0 60 60" fill="none" xmlns="http://www.w3.org/2000/svg">
<rect width="60" height="60" rx="30" fill="#E5EDFF"/>
<path d="M44.1298 18.981H16.7356C14.6725 18.981 13 20.6534 13 22.7165V42.6396C13 44.7027 14.6725 46.3752 16.7356 46.3752H44.1298C46.1929 46.3752 47.8654 44.7027 47.8654 42.6396V22.7165C47.8654 20.6534 46.1929 18.981 44.1298 18.981Z" stroke="#0745CB" stroke-width="2.5" stroke-linejoin="round"/>
<path d="M21.7163 18.9808V16.4904C21.7163 15.8299 21.9787 15.1965 22.4457 14.7294C22.9128 14.2624 23.5462 14 24.2067 14H36.6586C37.3191 14 37.9525 14.2624 38.4196 14.7294C38.8866 15.1965 39.149 15.8299 39.149 16.4904V18.9808M30.4327 26.4519V38.9038M36.6586 32.6779H24.2067" stroke="#0745CB" stroke-width="2.5" stroke-linecap="round" stroke-linejoin="round"/>
</svg>
