<svg width="60" height="61" viewBox="0 0 60 61" fill="none" xmlns="http://www.w3.org/2000/svg">
<g id="medkit-outline">
<rect y="0.212402" width="60" height="60" rx="30" fill="#E5EDFF"/>
<g id="Group 47433">
<path id="Vector" d="M44.1298 19.1934H16.7356C14.6725 19.1934 13 20.8658 13 22.9289V42.852C13 44.9151 14.6725 46.5876 16.7356 46.5876H44.1298C46.1929 46.5876 47.8654 44.9151 47.8654 42.852V22.9289C47.8654 20.8658 46.1929 19.1934 44.1298 19.1934Z" stroke="#0745CB" stroke-width="1.32821" stroke-linejoin="round"/>
<path id="Vector_2" d="M21.7158 19.1932V16.7028C21.7158 16.0423 21.9782 15.4089 22.4452 14.9418C22.9123 14.4748 23.5457 14.2124 24.2062 14.2124H36.6581C37.3186 14.2124 37.9521 14.4748 38.4191 14.9418C38.8861 15.4089 39.1485 16.0423 39.1485 16.7028V19.1932M30.4322 26.6643V39.1162M36.6581 32.8903H24.2062" stroke="#0745CB" stroke-width="1.32821" stroke-linecap="round" stroke-linejoin="round"/>
</g>
</g>
</svg>
