<svg width="20" height="12" viewBox="0 0 20 12" fill="none" xmlns="http://www.w3.org/2000/svg">
<path d="M4.44444 2.66656V0.444336H20V2.66656H4.44444ZM4.44444 7.111V4.88878H20V7.111H4.44444ZM4.44444 11.5554V9.33322H20V11.5554H4.44444ZM1.11111 2.66656C0.796296 2.66656 0.532407 2.56008 0.319444 2.34711C0.106481 2.13415 0 1.87026 0 1.55545C0 1.24063 0.106481 0.976743 0.319444 0.76378C0.532407 0.550817 0.796296 0.444336 1.11111 0.444336C1.42593 0.444336 1.68981 0.550817 1.90278 0.76378C2.11574 0.976743 2.22222 1.24063 2.22222 1.55545C2.22222 1.87026 2.11574 2.13415 1.90278 2.34711C1.68981 2.56008 1.42593 2.66656 1.11111 2.66656ZM1.11111 7.111C0.796296 7.111 0.532407 7.00452 0.319444 6.79156C0.106481 6.57859 0 6.31471 0 5.99989C0 5.68508 0.106481 5.42119 0.319444 5.20822C0.532407 4.99526 0.796296 4.88878 1.11111 4.88878C1.42593 4.88878 1.68981 4.99526 1.90278 5.20822C2.11574 5.42119 2.22222 5.68508 2.22222 5.99989C2.22222 6.31471 2.11574 6.57859 1.90278 6.79156C1.68981 7.00452 1.42593 7.111 1.11111 7.111ZM1.11111 11.5554C0.796296 11.5554 0.532407 11.449 0.319444 11.236C0.106481 11.023 0 10.7592 0 10.4443C0 10.1295 0.106481 9.86563 0.319444 9.65267C0.532407 9.43971 0.796296 9.33322 1.11111 9.33322C1.42593 9.33322 1.68981 9.43971 1.90278 9.65267C2.11574 9.86563 2.22222 10.1295 2.22222 10.4443C2.22222 10.7592 2.11574 11.023 1.90278 11.236C1.68981 11.449 1.42593 11.5554 1.11111 11.5554Z" fill="#0745CB"/>
</svg>
