<svg width="20" height="22" viewBox="0 0 20 22" fill="none" xmlns="http://www.w3.org/2000/svg">
<path d="M14.7368 21.5263V18.3684H11.5789V16.2631H14.7368V13.1052H16.8421V16.2631H20V18.3684H16.8421V21.5263H14.7368ZM2.10526 19.421C1.52632 19.421 1.0307 19.2149 0.618421 18.8026C0.20614 18.3903 0 17.8947 0 17.3157V4.68416C0 4.10521 0.20614 3.6096 0.618421 3.19732C1.0307 2.78504 1.52632 2.5789 2.10526 2.5789H3.15789V0.473633H5.26316V2.5789H11.5789V0.473633H13.6842V2.5789H14.7368C15.3158 2.5789 15.8114 2.78504 16.2237 3.19732C16.636 3.6096 16.8421 4.10521 16.8421 4.68416V11.1052C16.4912 11.0526 16.1404 11.0263 15.7895 11.0263C15.4386 11.0263 15.0877 11.0526 14.7368 11.1052V8.89469H2.10526V17.3157H9.47368C9.47368 17.6666 9.5 18.0175 9.55263 18.3684C9.60526 18.7192 9.70175 19.0701 9.8421 19.421H2.10526Z" fill="#0745CB"/>
</svg>
