<svg width="20" height="20" viewBox="0 0 20 20" fill="none" xmlns="http://www.w3.org/2000/svg">
<path d="M14.5 20V17H11.5V15H14.5V12H16.5V15H19.5V17H16.5V20H14.5ZM2.5 18C1.95 18 1.47917 17.8042 1.0875 17.4125C0.695833 17.0208 0.5 16.55 0.5 16V4C0.5 3.45 0.695833 2.97917 1.0875 2.5875C1.47917 2.19583 1.95 2 2.5 2H3.5V0H5.5V2H11.5V0H13.5V2H14.5C15.05 2 15.5208 2.19583 15.9125 2.5875C16.3042 2.97917 16.5 3.45 16.5 4V10.1C16.1667 10.05 15.8333 10.025 15.5 10.025C15.1667 10.025 14.8333 10.05 14.5 10.1V8H2.5V16H9.5C9.5 16.3333 9.525 16.6667 9.575 17C9.625 17.3333 9.71667 17.6667 9.85 18H2.5Z" fill="#0745CB"/>
</svg>
