<svg width="28" height="20" viewBox="0 0 28 20" fill="none" xmlns="http://www.w3.org/2000/svg">
<path d="M21.5 12.5V8.75H17.75V6.25H21.5V2.5H24V6.25H27.75V8.75H24V12.5H21.5ZM10.25 10C8.875 10 7.69792 9.51042 6.71875 8.53125C5.73958 7.55208 5.25 6.375 5.25 5C5.25 3.625 5.73958 2.44792 6.71875 1.46875C7.69792 0.489583 8.875 0 10.25 0C11.625 0 12.8021 0.489583 13.7812 1.46875C14.7604 2.44792 15.25 3.625 15.25 5C15.25 6.375 14.7604 7.55208 13.7812 8.53125C12.8021 9.51042 11.625 10 10.25 10ZM0.25 20V16.5C0.25 15.7917 0.432292 15.1406 0.796875 14.5469C1.16146 13.9531 1.64583 13.5 2.25 13.1875C3.54167 12.5417 4.85417 12.0573 6.1875 11.7344C7.52083 11.4115 8.875 11.25 10.25 11.25C11.625 11.25 12.9792 11.4115 14.3125 11.7344C15.6458 12.0573 16.9583 12.5417 18.25 13.1875C18.8542 13.5 19.3385 13.9531 19.7031 14.5469C20.0677 15.1406 20.25 15.7917 20.25 16.5V20H0.25Z" fill="#0745CB"/>
</svg>
