<svg width="61" height="61" viewBox="0 0 61 61" fill="none" xmlns="http://www.w3.org/2000/svg">
<g id="newspaper-outline">
<rect x="0.5" y="0.212402" width="60" height="60" rx="30" fill="#E5EDFF"/>
<g id="Group 47431">
<path id="Vector" d="M39.1162 42.5102V16.0586C39.1147 15.5694 38.9198 15.1006 38.5738 14.7547C38.2279 14.4088 37.7592 14.2138 37.2699 14.2124H16.3462C15.857 14.2138 15.3882 14.4088 15.0423 14.7547C14.6964 15.1006 14.5014 15.5694 14.5 16.0586V43.1364C14.5024 43.9517 14.8274 44.7329 15.4039 45.3095C15.9805 45.886 16.7617 46.211 17.577 46.2134H42.8086" stroke="#0745CB" stroke-width="1.31286" stroke-linejoin="round"/>
<path id="Vector_2" d="M42.8067 46.2137C41.8274 46.2137 40.8882 45.8246 40.1957 45.1322C39.5033 44.4397 39.1143 43.5005 39.1143 42.5212V20.3667H44.6529C45.1425 20.3667 45.6121 20.5612 45.9584 20.9074C46.3046 21.2537 46.4991 21.7233 46.4991 22.2129V42.5212C46.4991 43.5005 46.1101 44.4397 45.4176 45.1322C44.7252 45.8246 43.786 46.2137 42.8067 46.2137Z" stroke="#0745CB" stroke-width="1.31286" stroke-linejoin="round"/>
<path id="Vector_3" d="M29.2693 20.3667H34.1925M29.2693 25.2899H34.1925M19.4229 30.2132H34.1925M19.4229 35.1364H34.1925M19.4229 40.0596H34.1925" stroke="#0745CB" stroke-width="1.31286" stroke-linecap="round" stroke-linejoin="round"/>
<path id="Vector_4" d="M24.3454 26.5201H19.4222C19.0958 26.5201 18.7827 26.3904 18.5519 26.1596C18.3211 25.9288 18.1914 25.6157 18.1914 25.2893V20.3661C18.1914 20.0396 18.3211 19.7266 18.5519 19.4957C18.7827 19.2649 19.0958 19.1353 19.4222 19.1353H24.3454C24.6719 19.1353 24.9849 19.2649 25.2158 19.4957C25.4466 19.7266 25.5763 20.0396 25.5763 20.3661V25.2893C25.5763 25.6157 25.4466 25.9288 25.2158 26.1596C24.9849 26.3904 24.6719 26.5201 24.3454 26.5201Z" fill="#0745CB"/>
</g>
</g>
</svg>
