<svg width="20" height="21" viewBox="0 0 20 21" fill="none" xmlns="http://www.w3.org/2000/svg">
<g id="smartphone_FILL1_wght400_GRAD0_opsz24 1">
<path id="Vector" d="M5.83341 19.6663C5.37508 19.6663 4.98272 19.5031 4.65633 19.1768C4.32994 18.8504 4.16675 18.458 4.16675 17.9997V2.99967C4.16675 2.54134 4.32994 2.14898 4.65633 1.82259C4.98272 1.4962 5.37508 1.33301 5.83341 1.33301H14.1667C14.6251 1.33301 15.0174 1.4962 15.3438 1.82259C15.6702 2.14898 15.8334 2.54134 15.8334 2.99967V17.9997C15.8334 18.458 15.6702 18.8504 15.3438 19.1768C15.0174 19.5031 14.6251 19.6663 14.1667 19.6663H5.83341ZM5.83341 15.4997H14.1667V5.49967H5.83341V15.4997Z" fill="#455A64"/>
</g>
</svg>
