<svg width="61" height="60" viewBox="0 0 61 60" fill="none" xmlns="http://www.w3.org/2000/svg">
<rect x="0.112793" width="60" height="60" rx="30" fill="#E5EDFF"/>
<path d="M30.0414 30C31.5247 30 32.9748 29.5601 34.2081 28.736C35.4415 27.9119 36.4028 26.7406 36.9705 25.3701C37.5381 23.9997 37.6866 22.4917 37.3973 21.0368C37.1079 19.582 36.3936 18.2456 35.3447 17.1967C34.2958 16.1478 32.9594 15.4335 31.5045 15.1441C30.0497 14.8547 28.5417 15.0032 27.1712 15.5709C25.8008 16.1386 24.6295 17.0999 23.8053 18.3332C22.9812 19.5666 22.5414 21.0166 22.5414 22.5C22.5414 24.4891 23.3315 26.3968 24.7381 27.8033C26.1446 29.2098 28.0522 30 30.0414 30ZM30.0414 32.1429C25.3927 32.1429 16.1128 35.0143 16.1128 40.7143V45H43.9699V40.7143C43.9699 35.0143 34.69 32.1429 30.0414 32.1429Z" fill="#0745CB"/>
</svg>
