<svg width="16" height="17" viewBox="0 0 16 17" fill="none" xmlns="http://www.w3.org/2000/svg">
<path id="Vector" d="M11.5999 16.6738V14.2738H9.1999V12.6738H11.5999V10.2738H13.1999V12.6738H15.5999V14.2738H13.1999V16.6738H11.5999ZM1.9999 15.0738C1.5599 15.0738 1.18324 14.9172 0.869902 14.6038C0.556569 14.2905 0.399902 13.9138 0.399902 13.4738V3.87383C0.399902 3.43383 0.556569 3.05716 0.869902 2.74383C1.18324 2.43049 1.5599 2.27383 1.9999 2.27383H2.7999V0.673828H4.3999V2.27383H9.1999V0.673828H10.7999V2.27383H11.5999C12.0399 2.27383 12.4166 2.43049 12.7299 2.74383C13.0432 3.05716 13.1999 3.43383 13.1999 3.87383V8.75383C12.9332 8.71383 12.6666 8.69383 12.3999 8.69383C12.1332 8.69383 11.8666 8.71383 11.5999 8.75383V7.07383H1.9999V13.4738H7.5999C7.5999 13.7405 7.6199 14.0072 7.6599 14.2738C7.6999 14.5405 7.77324 14.8072 7.8799 15.0738H1.9999ZM1.9999 5.47383H11.5999V3.87383H1.9999V5.47383Z" fill="white"/>
</svg>
