<svg width="18" height="17" viewBox="0 0 18 17" fill="none" xmlns="http://www.w3.org/2000/svg">
<path id="Vector" d="M12.8801 16.0369L10.0401 13.1969L11.1801 12.0769L12.8801 13.7769L16.2801 10.3769L17.4001 11.5169L12.8801 16.0369ZM9.8001 16.8369C8.3601 16.8369 7.13343 16.3302 6.1201 15.3169C5.10676 14.3036 4.6001 13.0769 4.6001 11.6369V11.1769C3.45343 10.9902 2.5001 10.4536 1.7401 9.56691C0.980098 8.68025 0.600098 7.63691 0.600098 6.43691V1.63691H3.0001V0.836914H4.6001V4.03691H3.0001V3.23691H2.2001V6.43691C2.2001 7.31691 2.51343 8.07025 3.1401 8.69691C3.76676 9.32358 4.5201 9.63691 5.4001 9.63691C6.2801 9.63691 7.03343 9.32358 7.6601 8.69691C8.28677 8.07025 8.6001 7.31691 8.6001 6.43691V3.23691H7.8001V4.03691H6.2001V0.836914H7.8001V1.63691H10.2001V6.43691C10.2001 7.63691 9.8201 8.68025 9.0601 9.56691C8.3001 10.4536 7.34676 10.9902 6.2001 11.1769V11.6369C6.2001 12.6369 6.5501 13.4869 7.2501 14.1869C7.9501 14.8869 8.8001 15.2369 9.8001 15.2369V16.8369Z" fill="white"/>
</svg>
