<svg width="14" height="15" viewBox="0 0 14 15" fill="none" xmlns="http://www.w3.org/2000/svg">
<path fill-rule="evenodd" clip-rule="evenodd" d="M1.64918 0.659105C2.29853 0.00975528 3.37006 0.0764665 3.93385 0.801344L5.50334 2.81926C5.79136 3.18957 5.89314 3.67174 5.77936 4.12686L5.3005 6.04229C5.24995 6.24451 5.3092 6.45843 5.45659 6.60582L7.6061 8.75533C7.75349 8.90272 7.9674 8.96197 8.16962 8.91142L10.0851 8.43256C10.5402 8.31878 11.0223 8.42055 11.3927 8.70857L13.4106 10.2781C14.1354 10.8419 14.2022 11.9134 13.5528 12.5627L12.6481 13.4674C12.0009 14.1147 11.0328 14.3989 10.1305 14.0817C7.89035 13.2941 5.78759 12.0046 3.99743 10.2145C2.20727 8.42433 0.91783 6.32156 0.130233 4.08138C-0.186972 3.17915 0.0972388 2.21104 0.744494 1.56379L1.64918 0.659105Z" fill="#0745CB"/>
</svg>
