<svg width="20" height="21" viewBox="0 0 20 21" fill="none" xmlns="http://www.w3.org/2000/svg">
<path d="M6.28251 18.9619C13.8295 18.9619 17.9592 12.7082 17.9592 7.29422C17.9592 7.11829 17.9592 6.94235 17.9512 6.76642C18.7515 6.19063 19.4478 5.4629 20 4.6392C19.2637 4.96708 18.4714 5.183 17.6391 5.28696C18.4874 4.78315 19.1357 3.97545 19.4478 3.0158C18.6555 3.48763 17.7751 3.8235 16.8387 4.00744C16.0864 3.20773 15.022 2.71191 13.8455 2.71191C11.5806 2.71191 9.7399 4.55123 9.7399 6.8144C9.7399 7.13428 9.77991 7.44617 9.84394 7.75005C6.43457 7.58211 3.40936 5.94272 1.38455 3.46364C1.03241 4.07141 0.832333 4.77515 0.832333 5.52687C0.832333 6.95035 1.56062 8.20588 2.65706 8.94161C1.98479 8.91762 1.35254 8.73369 0.80032 8.4298C0.80032 8.4458 0.80032 8.46179 0.80032 8.48578C0.80032 10.469 2.21689 12.1324 4.08964 12.5083C3.7455 12.6043 3.38535 12.6522 3.0092 12.6522C2.7451 12.6522 2.489 12.6283 2.2409 12.5803C2.7611 14.2117 4.28171 15.3952 6.07443 15.4272C4.66587 16.5308 2.89716 17.1866 0.976391 17.1866C0.64826 17.1866 0.320128 17.1706 0 17.1306C1.80872 18.2822 3.96959 18.9619 6.28251 18.9619Z" fill="#0745CB"/>
</svg>
