<svg width="20" height="21" viewBox="0 0 20 21" fill="none" xmlns="http://www.w3.org/2000/svg">
<path d="M17.0016 3.11997C15.1342 1.24304 12.6443 0.211914 9.99285 0.211914C4.53313 0.211914 0.0855308 4.65953 0.0807791 10.1193C0.0807791 11.8679 0.536944 13.569 1.40176 15.0753L0 20.2119L5.25539 18.8339C6.70467 19.6227 8.33451 20.0409 9.99285 20.0409H9.99761C15.4573 20.0409 19.9049 15.5932 19.9097 10.1288C19.9049 7.48205 18.8738 4.99215 17.0016 3.11997ZM9.99285 18.3635C8.51032 18.3635 7.06105 17.9643 5.79709 17.2136L5.49773 17.033L2.38061 17.8503L3.21216 14.8092L3.01734 14.4956C2.19054 13.1841 1.75813 11.6683 1.75813 10.1145C1.75813 5.58136 5.45497 1.88452 9.99761 1.88452C12.1976 1.88452 14.2646 2.74458 15.8232 4.2984C17.377 5.85696 18.2323 7.92396 18.2323 10.124C18.2276 14.6714 14.5307 18.3635 9.99285 18.3635ZM14.5117 12.1958C14.2646 12.0722 13.0482 11.4735 12.8201 11.388C12.592 11.3072 12.4257 11.2644 12.2642 11.5115C12.0979 11.7586 11.6227 12.3193 11.4801 12.4809C11.3376 12.6472 11.1903 12.6662 10.9432 12.5426C10.6961 12.4191 9.89782 12.1577 8.95223 11.3119C8.21571 10.6562 7.72153 9.84366 7.57423 9.59657C7.43168 9.34948 7.55998 9.21643 7.68352 9.09288C7.79281 8.98359 7.93061 8.80303 8.05415 8.66048C8.1777 8.51793 8.22046 8.41339 8.30124 8.24708C8.38202 8.08077 8.34401 7.93822 8.28224 7.81467C8.22046 7.69113 7.72629 6.46993 7.51721 5.97575C7.31764 5.49108 7.11332 5.5576 6.96126 5.55285C6.81871 5.54335 6.6524 5.54335 6.48609 5.54335C6.31978 5.54335 6.05368 5.60512 5.8256 5.85221C5.59752 6.0993 4.96079 6.69802 4.96079 7.91921C4.96079 9.1404 5.84936 10.3141 5.9729 10.4804C6.09645 10.6467 7.71678 13.1461 10.2019 14.22C10.7911 14.4766 11.2521 14.6286 11.6132 14.7427C12.2072 14.9327 12.7441 14.9042 13.1718 14.8425C13.6469 14.7712 14.6353 14.2438 14.8444 13.664C15.0487 13.0843 15.0487 12.5902 14.9869 12.4856C14.9251 12.3811 14.7588 12.3193 14.5117 12.1958Z" fill="#0745CB"/>
</svg>
