<svg width="20" height="20" viewBox="0 0 20 20" fill="none" xmlns="http://www.w3.org/2000/svg">
<g id="woman_2_FILL1_wght400_GRAD0_opsz24 1">
<path id="Vector" d="M8.74992 18.3337V13.3337H5.83325L8.37492 6.91699C8.51381 6.58366 8.72909 6.31977 9.02075 6.12533C9.31242 5.93088 9.63881 5.83366 9.99992 5.83366C10.361 5.83366 10.6874 5.93088 10.9791 6.12533C11.2708 6.31977 11.486 6.58366 11.6249 6.91699L14.1666 13.3337H11.2499V18.3337H8.74992ZM9.99992 5.00033C9.54159 5.00033 9.14922 4.83713 8.82284 4.51074C8.49645 4.18435 8.33325 3.79199 8.33325 3.33366C8.33325 2.87533 8.49645 2.48296 8.82284 2.15658C9.14922 1.83019 9.54159 1.66699 9.99992 1.66699C10.4583 1.66699 10.8506 1.83019 11.177 2.15658C11.5034 2.48296 11.6666 2.87533 11.6666 3.33366C11.6666 3.79199 11.5034 4.18435 11.177 4.51074C10.8506 4.83713 10.4583 5.00033 9.99992 5.00033Z" fill="#455A64"/>
</g>
</svg>
